<svg xmlns="http://www.w3.org/2000/svg" version="1.1" xmlns:xlink="http://www.w3.org/1999/xlink" xmlns:svgjs="http://svgjs.com/svgjs" width="1000" height="1000"><rect width="1000" height="1000" rx="500" ry="500" fill="#420a2e"></rect><g transform="matrix(1.074575542660649,0,0,1.074575542660649,27.02776329281562,-0.1073985790299048)"><svg xmlns="http://www.w3.org/2000/svg" version="1.1" xmlns:xlink="http://www.w3.org/1999/xlink" xmlns:svgjs="http://svgjs.com/svgjs" width="883.32" height="930.6"><svg xmlns="http://www.w3.org/2000/svg" xmlns:xlink="http://www.w3.org/1999/xlink" viewBox="0 0 883.32 930.6">
  <defs>
    <style>
      .cls-1 {
        fill: #595471;
      }

      .cls-1, .cls-2, .cls-3, .cls-4, .cls-5, .cls-6, .cls-7, .cls-8, .cls-9 {
        stroke-width: 0px;
      }

      .cls-2 {
        fill: url(#linear-gradient);
      }

      .cls-3, .cls-10 {
        fill: #000;
      }

      .cls-4 {
        fill: #7c779e;
      }

      .cls-5 {
        fill: #3c3956;
      }

      .cls-6 {
        fill: url(#linear-gradient-2);
      }

      .cls-7 {
        fill: #595471;
      }

      .cls-11 {
        fill: none;
        stroke-linecap: round;
        stroke-linejoin: round;
        stroke-width: 20px;
      }

      .cls-11, .cls-10 {
        stroke: #000;
      }

      .cls-10 {
        font-family: SimSun-ExtB, SimSun-ExtB;
        font-size: 197px;
        stroke-miterlimit: 10;
        stroke-width: 7px;
      }

      .cls-8 {
        fill: #fff;
      }

      .cls-9 {
        fill: #bd3131;
      }
    </style>
    <linearGradient id="linear-gradient" x1="603.24" y1="324.98" x2="651.94" y2="237.83" gradientUnits="userSpaceOnUse">
      <stop offset="0" stop-color="#595471"></stop>
      <stop offset=".59" stop-color="#bd3131"></stop>
    </linearGradient>
    <linearGradient id="linear-gradient-2" x1="359.06" y1="333.79" x2="342.97" y2="254.76" gradientUnits="userSpaceOnUse">
      <stop offset="0" stop-color="#595471"></stop>
      <stop offset=".8" stop-color="#bd3131"></stop>
    </linearGradient>
  </defs>
  <g id="rope">
    <path class="cls-11" d="M294.58,503.98s-6.89,44.1-5.97,144.7c.71,78.02,20.67,143.78,20.67,143.78"></path>
    <path class="cls-11" d="M295.96,522.81s-25.06,30.36-43.64,130.46c-14.24,76.71-14.24,156.64-14.24,156.64"></path>
    <polygon class="cls-9" points="272.09 849.07 244.27 868.56 213.47 854.21 210.5 820.37 238.32 800.87 269.12 815.22 272.09 849.07"></polygon>
    <path class="cls-11" d="M310.81,459.88s-46.24-91.57-80.54-74.72-22.66,84.52-22.66,84.52c0,0,.31,59.11,27.87,79.62,35.42,26.37,75.34-89.42,75.34-89.42Z"></path>
    <path class="cls-11" d="M297.87,481.62s-104.04,17.91-138.34,34.76-45.52,41.26-49.61,63.39-5.51,71.2,47.77,77.17c96.49,10.81,140.18-175.32,140.18-175.32Z"></path>
    <polygon class="cls-9" points="349.43 832.21 324.78 855.59 292.21 845.92 284.29 812.88 308.95 789.51 341.52 799.17 349.43 832.21"></polygon>
    <path class="cls-11" d="M284.48,503.06s-107.42-12.62-150.21-77.86c-42.03-64.08-24.12-156.41-24.12-156.41,0,0,35.83-144.7,4.82-210.85C83.96-8.22,37.24,11.15,28.15,17.97-4.93,42.77,10.6,102.99,47.44,125.46c37.67,22.97,91.8,19.05,148.15,13.09,71.66-7.58,123.34-7.58,221.18,84.75,97.85,92.33,89.58,117.14,89.58,117.14"></path>
    <polygon class="cls-3" points="332.48 901.12 311.89 904.26 299.83 899.73 298.87 843.3 319.62 831.04 332.48 901.12"></polygon>
    <polygon class="cls-3" points="332.57 874.83 332.48 901.12 319.62 831.04 341.44 834.11 338.12 899.41 332.57 874.83"></polygon>
    <polygon class="cls-3" points="346.95 899.34 338.12 899.41 341.44 834.11 354.61 895.66 346.95 899.34"></polygon>
    <polygon class="cls-3" points="353.99 880.66 354.61 895.66 341.44 834.11 365.48 889.38 360.73 893.67 353.99 880.66"></polygon>
    <polygon class="cls-3" points="243.75 915.26 222.92 915.57 211.59 909.44 218.06 856.35 241.6 844.52 243.75 915.26"></polygon>
    <polygon class="cls-3" points="247.42 889.23 243.75 915.26 241.6 844.52 264.49 854.4 249.56 914.34 247.42 889.23"></polygon>
    <polygon class="cls-3" points="266.41 913.73 249.56 914.34 264.49 854.4 281.72 909.44 266.41 913.73"></polygon>
  </g>
  <g id="mask">
    <polygon class="cls-2" points="613.69 254.08 663.61 283.48 623.79 367.39 560.1 322.99 613.69 254.08"></polygon>
    <polygon class="cls-9" points="633.65 147.66 663.61 147.66 670.69 215.82 623.79 220.09 633.65 147.66"></polygon>
    <polygon class="cls-9" points="623.79 220.09 670.69 215.82 663.61 283.48 613.69 254.08 623.79 220.09"></polygon>
    <polygon class="cls-9" points="663.61 147.66 633.65 34.96 633.65 147.66 663.61 147.66"></polygon>
    <polygon class="cls-9" points="350.62 126.84 411.26 17.97 395.89 131.89 350.62 126.84"></polygon>
    <polygon class="cls-9" points="441.17 449.92 482.86 422.58 481.79 454.21 441.17 449.92"></polygon>
    <polygon class="cls-9" points="300.09 765.81 342.51 730.75 363.49 747.75 300.09 765.81"></polygon>
    <polygon class="cls-3" points="621.96 538.43 614.91 527.86 642.78 516.84 646.46 537.82 621.96 538.43"></polygon>
    <polygon class="cls-3" points="365.94 555.88 375.74 540.11 412.64 529.01 398.09 547.62 365.94 555.88"></polygon>
    <polygon class="cls-3" points="353.38 538.58 360.58 529.39 375.74 540.11 365.94 555.88 353.38 538.58"></polygon>
    <polygon class="cls-5" points="337.61 559.56 353.38 538.58 378.19 572.12 354.76 569.51 337.61 559.56"></polygon>
    <polygon class="cls-5" points="360.58 529.39 389.44 517.53 412.64 529.01 375.74 540.11 360.58 529.39"></polygon>
    <polygon class="cls-3" points="379.41 573.65 365.94 555.88 398.09 547.62 402.23 568.44 379.41 573.65"></polygon>
    <polygon class="cls-3" points="385.69 581.76 379.41 573.65 402.23 568.44 416.93 580.08 385.69 581.76"></polygon>
    <polygon class="cls-3" points="411.11 593.09 385.69 581.76 416.93 580.08 440.66 580.08 411.11 593.09"></polygon>
    <polygon class="cls-3" points="453.68 592.48 411.11 593.09 440.66 580.08 469.29 581.15 453.68 592.48"></polygon>
    <polygon class="cls-3" points="469.29 581.15 440.66 580.08 459.65 556.5 494.41 567.83 469.29 581.15"></polygon>
    <polygon class="cls-3" points="494.41 567.83 459.65 556.5 451.69 533.83 501.45 540.88 494.41 567.83"></polygon>
    <polygon class="cls-3" points="620.58 557.26 621.96 538.43 646.46 537.82 639.87 555.27 620.58 557.26"></polygon>
    <polygon class="cls-3" points="605.57 563.85 620.58 557.26 639.87 555.27 621.96 569.67 606.26 567.77 605.57 563.85"></polygon>
    <polygon class="cls-3" points="588.38 558.45 605.57 563.85 606.26 567.77 593.69 565.77 588.38 558.45"></polygon>
    <polygon class="cls-3" points="582.62 566.94 578.7 560.02 587.32 552.44 588.38 558.45 582.62 566.94"></polygon>
    <polygon class="cls-3" points="582.62 566.94 588.38 558.45 593.69 565.77 582.62 566.94"></polygon>
    <polygon class="cls-3" points="439.66 340.07 446.17 367.39 414.63 377.57 422.29 358.36 439.66 340.07"></polygon>
    <polygon class="cls-3" points="546.06 502.14 549.99 543.48 530.39 553.89 516 533.57 546.06 502.14"></polygon>
    <polygon class="cls-3" points="520.13 591.26 501.6 592.17 462.25 604.42 495.94 577.63 520.13 591.26"></polygon>
    <polygon class="cls-5" points="544.78 640.1 527.94 642.09 519.06 633.82 534.52 629.38 544.78 640.1"></polygon>
    <polygon class="cls-5" points="499.99 686.16 487.52 675.78 507.42 677.92 499.99 686.16"></polygon>
    <polygon class="cls-5" points="533.22 686.4 499.99 686.16 507.42 677.92 539.88 676.39 533.22 686.4"></polygon>
    <polygon class="cls-3" points="502.52 645.15 497.16 658.63 495.02 638.26 519.06 633.82 502.52 645.15"></polygon>
    <polygon class="cls-3" points="497.16 658.63 479.25 669.81 479.86 660.31 495.02 638.26 497.16 658.63"></polygon>
    <polygon class="cls-3" points="321.68 637.04 304 641.02 312.06 606.98 317.09 616.06 321.68 637.04"></polygon>
    <polygon class="cls-3" points="507.42 677.92 487.52 675.78 479.25 669.81 497.16 658.63 507.42 677.92"></polygon>
    <polygon class="cls-3" points="567.29 679.76 539.88 676.39 533.45 658.02 560.55 664.14 567.29 679.76"></polygon>
    <polygon class="cls-3" points="544.25 866.19 515.31 870.09 535.29 854.24 560.1 853.09 544.25 866.19"></polygon>
    <polygon class="cls-3" points="479.25 669.81 431.01 674.86 479.86 660.31 479.25 669.81"></polygon>
    <polygon class="cls-3" points="506.35 726.77 474.19 714.83 496.13 712.87 506.35 726.77"></polygon>
    <polygon class="cls-3" points="575.31 473.96 606.03 502.14 600.71 511.77 580 502.14 575.31 473.96"></polygon>
    <polygon class="cls-3" points="580 502.14 600.71 511.77 583.98 541.18 575.66 523.19 580 502.14"></polygon>
    <polygon class="cls-3" points="385.23 409.41 384.01 421.21 345.72 418.23 385.23 409.41"></polygon>
    <polygon class="cls-3" points="414.63 377.57 384.01 421.21 385.23 409.41 414.63 377.57"></polygon>
    <polygon class="cls-3" points="629.55 355.25 635.31 367.39 635.28 394.8 623.79 367.39 629.55 355.25"></polygon>
    <polygon class="cls-3" points="345.72 418.23 315.1 398.74 317.86 377.57 345.72 418.23"></polygon>
    <polygon class="cls-6" points="397.17 346.55 397.17 332.02 395.89 316.55 389.21 235.71 315.1 268.78 317.86 377.57 397.17 346.55"></polygon>
    <polygon class="cls-9" points="389.82 210.9 395.89 131.89 350.62 126.84 315.1 206.61 389.82 210.9"></polygon>
    <polygon class="cls-9" points="389.21 235.71 389.82 210.9 315.1 206.61 315.1 268.78 389.21 235.71"></polygon>
    <polygon class="cls-9" points="501.58 482.39 481.79 454.21 441.17 449.92 433.33 485.82 501.58 482.39"></polygon>
    <polygon class="cls-9" points="481.79 504.44 501.58 482.39 433.33 485.82 454.03 507.68 481.79 504.44"></polygon>
    <polygon class="cls-9" points="404.83 672.56 379.11 670.5 364.86 678.08 412.18 692.55 404.83 672.56"></polygon>
    <polygon class="cls-9" points="490.31 720.8 476.18 719.72 465.24 726.6 500.46 731.65 490.31 720.8"></polygon>
    <polygon class="cls-9" points="478.56 824.84 503.82 821.86 508.19 808.08 474.65 810.6 478.56 824.84"></polygon>
    <polygon class="cls-9" points="563.77 818.64 569.67 816.88 579.39 817.42 589.19 806.01 572.61 798.31 563.77 818.64"></polygon>
    <polygon class="cls-9" points="412.18 692.55 364.86 678.08 358.28 701.5 405.14 717.43 412.18 692.55"></polygon>
    <polygon class="cls-9" points="500.46 731.65 465.24 726.6 463.32 739.02 503.74 739.64 500.46 731.65"></polygon>
    <polygon class="cls-9" points="503.74 739.64 463.32 739.02 455.82 756.78 490.73 760.46 503.74 739.64"></polygon>
    <polygon class="cls-9" points="507.96 797.28 482.23 797.51 474.65 810.6 508.19 808.08 507.96 797.28"></polygon>
    <polygon class="cls-9" points="594.66 796.02 579.5 786.98 572.61 798.31 589.19 806.01 594.66 796.02"></polygon>
    <polygon class="cls-9" points="587.31 777.87 579.62 757.32 563.2 763.52 579.5 786.98 587.31 777.87"></polygon>
    <polygon class="cls-9" points="579.62 757.32 573.65 744.82 554.91 746.24 563.2 763.52 579.62 757.32"></polygon>
    <polygon class="cls-9" points="490.73 760.46 455.82 756.78 474.5 792.3 475.57 780.51 490.73 760.46"></polygon>
    <polygon class="cls-9" points="589.49 723.09 611.09 708.85 624.71 748.05 587.05 743.23 589.49 723.09"></polygon>
    <polygon class="cls-9" points="587.05 743.23 624.71 748.05 617.82 761.22 598.38 764.13 587.05 743.23"></polygon>
    <polygon class="cls-9" points="598.38 764.13 617.82 761.22 598.53 788.48 598.38 764.13"></polygon>
    <polygon class="cls-9" points="498.08 764.9 507.96 797.28 482.23 797.51 493.08 786.54 498.08 764.9"></polygon>
    <polygon class="cls-9" points="596.5 779.83 594.66 796.02 579.5 786.98 587.31 777.87 592.37 763.63 596.5 779.83"></polygon>
    <polygon class="cls-9" points="445.48 711.38 412.18 692.55 407.07 710.46 443.11 731.82 445.48 711.38"></polygon>
    <polygon class="cls-9" points="457.54 716.89 450.08 716.32 444.67 718.33 465.24 726.6 457.54 716.89"></polygon>
    <polygon class="cls-9" points="465.24 726.6 444.67 718.33 443.11 731.82 463.32 739.02 465.24 726.6"></polygon>
    <polygon class="cls-9" points="530.32 729.58 509.79 730.14 498.46 747.94 529.47 747.52 530.32 729.58"></polygon>
    <polygon class="cls-9" points="550.76 729.07 530.32 729.58 529.47 747.52 561.24 734.81 550.76 729.07"></polygon>
    <polygon class="cls-9" points="580.31 744.22 568.36 726.58 561.24 734.81 561.01 745.95 580.31 744.22"></polygon>
    <polygon class="cls-9" points="587.05 743.23 589.49 723.09 572.84 721.95 568.36 726.58 580.31 744.22 587.05 743.23"></polygon>
    <polygon class="cls-9" points="561.24 734.81 529.47 747.52 561.01 745.95 561.24 734.81"></polygon>
    <polygon class="cls-9" points="441.35 750.2 405.14 717.43 389.08 729.11 425.27 759.84 441.35 750.2"></polygon>
    <polygon class="cls-9" points="464.09 784.96 441.35 750.2 425.27 759.84 452.37 798.43 464.09 784.96"></polygon>
    <polygon class="cls-9" points="572.61 798.31 514.96 803.83 510.94 823.92 563.77 818.64 572.61 798.31"></polygon>
    <polygon class="cls-9" points="569.67 794.53 507.96 797.28 508.07 803.25 514.96 803.83 572.61 798.31 569.67 794.53"></polygon>
    <polygon class="cls-9" points="514.96 803.83 508.07 803.25 508.19 808.08 503.82 821.86 510.94 823.92 514.96 803.83"></polygon>
    <polygon class="cls-9" points="482.23 797.51 464.09 784.96 452.37 798.43 457.89 808.54 482.23 797.51"></polygon>
    <polygon class="cls-9" points="474.65 810.6 482.23 797.51 457.89 808.54 478.56 824.84 474.65 810.6"></polygon>
    <polygon class="cls-9" points="364.86 678.08 340.06 652.81 362.61 686.31 364.86 678.08"></polygon>
    <polygon class="cls-9" points="360.81 692.64 338.22 660.62 358.28 701.5 360.81 692.64"></polygon>
    <polygon class="cls-9" points="405.14 717.43 358.28 701.5 342.51 730.75 363.49 747.75 405.14 717.43"></polygon>
    <polygon class="cls-9" points="696.87 728.03 656.68 724.01 640.94 748.36 696.87 728.03"></polygon>
    <polygon class="cls-9" points="611.09 708.85 620.96 681.78 644.04 715.63 622.51 741.9 611.09 708.85"></polygon>
    <polygon class="cls-9" points="622.51 741.9 644.04 715.63 656.68 724.01 640.94 748.36 622.51 741.9"></polygon>
    <polygon class="cls-9" points="633.65 430.02 610.17 409.41 615.43 432.22 633.65 430.02"></polygon>
    <polygon class="cls-9" points="595.31 463.09 615.43 432.22 633.65 430.02 651.36 461.71 595.31 463.09"></polygon>
    <polygon class="cls-9" points="604.29 492.95 595.31 463.09 651.36 461.71 629.55 495.03 604.29 492.95"></polygon>
    <polygon class="cls-1" points="536.21 348.4 536.21 316.55 511.86 307.37 477.1 311.81 536.21 348.4"></polygon>
    <polygon class="cls-5" points="312.04 442.11 345.72 418.23 315.1 398.74 310.2 419.76 312.04 442.11"></polygon>
    <polygon class="cls-1" points="380.94 450.69 384.01 421.21 345.72 418.23 312.04 442.11 380.94 450.69"></polygon>
    <polygon class="cls-1" points="441.17 449.92 459.74 437.83 384.01 421.21 380.94 450.69 441.17 449.92"></polygon>
    <polygon class="cls-1" points="362.97 489.36 380.94 450.69 312.04 442.11 305.61 470 362.97 489.36"></polygon>
    <polygon class="cls-5" points="436.99 415.78 446.17 367.39 414.63 377.57 384.01 421.21 436.99 415.78"></polygon>
    <polygon class="cls-7" points="536.21 388.29 484.32 361.23 446.17 367.39 459.74 437.83 536.21 388.29"></polygon>
    <polygon class="cls-7" points="459.74 437.83 446.17 367.39 436.99 415.78 384.01 421.21 459.74 437.83"></polygon>
    <polygon class="cls-7" points="526.79 428.87 536.21 388.29 482.86 422.58 481.79 454.21 526.79 428.87"></polygon>
    <polygon class="cls-7" points="541.72 454.21 526.79 428.87 481.79 454.21 501.58 482.39 541.72 454.21"></polygon>
    <polygon class="cls-7" points="546.06 502.14 541.72 454.21 501.58 482.39 516 533.57 546.06 502.14"></polygon>
    <polygon class="cls-7" points="516 533.57 501.58 482.39 481.79 504.44 501.45 540.88 516 533.57"></polygon>
    <polygon class="cls-5" points="530.39 553.89 501.45 540.88 494.41 567.83 520.13 591.26 530.39 553.89"></polygon>
    <polygon class="cls-7" points="549.68 557.87 530.39 553.89 541.11 617.44 583.83 647.91 549.68 557.87"></polygon>
    <polygon class="cls-7" points="454.67 650.97 431.01 674.86 479.86 660.31 495.02 638.26 454.67 650.97"></polygon>
    <polygon class="cls-7" points="453.68 592.48 411.11 593.09 417 607.33 462.25 604.42 453.68 592.48"></polygon>
    <polygon class="cls-4" points="462.25 604.42 417 607.33 407.59 647.3 454.67 650.97 462.25 604.42"></polygon>
    <polygon class="cls-7" points="567.29 679.76 539.88 676.39 506.35 726.77 561.63 724.47 567.29 679.76"></polygon>
    <polygon class="cls-7" points="599.26 692.2 583.18 690.02 572.84 721.95 589.49 723.09 599.26 692.2"></polygon>
    <polygon class="cls-7" points="628.08 662.46 599.26 692.2 589.49 723.09 611.09 708.85 628.08 662.46"></polygon>
    <polygon class="cls-5" points="583.18 690.02 567.29 679.76 561.63 724.47 572.84 721.95 583.18 690.02"></polygon>
    <polygon class="cls-3" points="599.26 692.2 599.91 685.27 567.29 679.76 583.18 690.02 599.26 692.2"></polygon>
    <polygon class="cls-3" points="572.84 721.95 561.63 724.47 568.36 726.58 572.84 721.95"></polygon>
    <polygon class="cls-3" points="628.08 662.46 599.91 685.27 599.26 692.2 628.08 662.46"></polygon>
    <polygon class="cls-7" points="417 607.33 376.35 595.39 340.06 652.81 407.59 647.3 417 607.33"></polygon>
    <polygon class="cls-7" points="338.22 660.62 321.68 637.04 304 641.02 308.82 697.22 338.22 660.62"></polygon>
    <polygon class="cls-7" points="358.28 701.5 338.22 660.62 308.82 697.22 342.51 730.75 358.28 701.5"></polygon>
    <polygon class="cls-7" points="425.27 759.84 389.08 729.11 363.49 747.75 409.88 791.31 425.27 759.84"></polygon>
    <polygon class="cls-7" points="449.85 810.83 425.27 759.84 409.88 791.31 444.79 845.74 449.85 810.83"></polygon>
    <polygon class="cls-7" points="462.02 823.92 449.85 810.83 444.79 845.74 472.13 879.97 462.02 823.92"></polygon>
    <polygon class="cls-7" points="478.56 834.03 462.02 823.92 472.13 879.97 497.85 870.78 478.56 834.03"></polygon>
    <polygon class="cls-5" points="544.25 866.19 515.31 870.09 508.65 886.86 543.79 874.45 544.25 866.19"></polygon>
    <polygon class="cls-5" points="515.31 870.09 497.85 870.78 472.13 879.97 508.65 886.86 515.31 870.09"></polygon>
    <polygon class="cls-7" points="578.93 864.12 544.25 866.19 543.79 874.45 570.2 874.91 578.93 864.12"></polygon>
    <polygon class="cls-7" points="584.44 850.34 560.1 853.09 544.25 866.19 578.93 864.12 584.44 850.34"></polygon>
    <polygon class="cls-7" points="503.36 834.72 478.56 834.03 515.31 870.09 535.29 854.24 503.36 834.72"></polygon>
    <polygon class="cls-7" points="478.56 834.03 497.85 870.78 515.31 870.09 478.56 834.03"></polygon>
    <polygon class="cls-7" points="561.7 829.9 503.36 834.72 535.29 854.24 560.1 853.09 561.7 829.9"></polygon>
    <polygon class="cls-4" points="575.56 829.74 561.7 829.9 560.1 853.09 584.44 850.34 575.56 829.74"></polygon>
    <polygon class="cls-7" points="588.19 824 575.56 829.74 584.44 850.34 593.28 815.89 588.19 824"></polygon>
    <polygon class="cls-7" points="454.67 650.97 407.59 647.3 340.06 652.81 431.01 674.86 454.67 650.97"></polygon>
    <polygon class="cls-7" points="533.22 686.4 499.99 686.16 474.19 714.83 496.13 712.87 533.22 686.4"></polygon>
    <polygon class="cls-7" points="533.22 686.4 496.13 712.87 506.35 726.77 533.22 686.4"></polygon>
    <polygon class="cls-7" points="499.99 686.16 487.52 675.78 458.52 715.05 474.19 714.83 499.99 686.16"></polygon>
    <polygon class="cls-7" points="487.52 675.78 479.25 669.81 448.47 707.65 458.52 715.05 487.52 675.78"></polygon>
    <polygon class="cls-7" points="479.25 669.81 431.01 674.86 418.09 690.19 448.47 707.65 479.25 669.81"></polygon>
    <polygon class="cls-5" points="431.01 674.86 411.38 670.09 412.18 692.55 418.09 690.19 431.01 674.86"></polygon>
    <polygon class="cls-7" points="377.14 661.75 340.06 652.81 367.79 674.18 377.14 661.75"></polygon>
    <polygon class="cls-7" points="376.35 595.39 354.76 569.51 323.33 572.69 347.41 600.44 376.35 595.39"></polygon>
    <polygon class="cls-7" points="340.06 652.81 376.35 595.39 347.41 600.44 317.09 616.06 340.06 652.81"></polygon>
    <polygon class="cls-5" points="317.09 616.06 347.41 600.44 291.37 535.9 285.85 559.79 317.09 616.06"></polygon>
    <polygon class="cls-3" points="412.18 692.55 411.38 670.09 377.14 661.75 367.79 674.18 364.86 678.08 379.11 670.5 404.83 672.56 412.18 692.55"></polygon>
    <polygon class="cls-7" points="323.33 572.69 354.76 569.51 337.61 559.56 291.37 535.9 323.33 572.69"></polygon>
    <polygon class="cls-7" points="337.61 559.56 360.58 529.39 339.29 510.56 291.37 535.9 337.61 559.56"></polygon>
    <polygon class="cls-7" points="339.29 510.56 362.97 489.36 305.61 470 291.37 535.9 339.29 510.56"></polygon>
    <polygon class="cls-7" points="411.11 593.09 385.69 581.76 376.35 595.39 417 607.33 411.11 593.09"></polygon>
    <polygon class="cls-7" points="385.69 581.76 378.19 572.12 354.76 569.51 376.35 595.39 385.69 581.76"></polygon>
    <polygon class="cls-7" points="453.68 592.48 462.25 604.42 467 582.07 453.68 592.48"></polygon>
    <polygon class="cls-4" points="639.87 555.27 621.96 569.67 632.37 599.52 661.16 594.01 639.87 555.27"></polygon>
    <polygon class="cls-7" points="621.96 569.67 593.69 565.77 599.6 597.07 632.37 599.52 621.96 569.67"></polygon>
    <polygon class="cls-7" points="632.37 599.52 599.6 597.07 625.17 641.94 647.83 628.23 632.37 599.52"></polygon>
    <polygon class="cls-7" points="661.16 594.01 632.37 599.52 647.83 628.23 661.16 594.01"></polygon>
    <polygon class="cls-7" points="593.69 565.77 582.62 566.94 599.6 597.07 593.69 565.77"></polygon>
    <polygon class="cls-5" points="530.39 553.89 520.13 591.26 527.33 610.7 542.64 618.05 530.39 553.89"></polygon>
    <polygon class="cls-5" points="317.09 616.06 321.68 637.04 338.22 660.62 340.06 652.81 317.09 616.06"></polygon>
    <polygon class="cls-5" points="418.09 690.19 412.18 692.55 445.48 711.38 448.47 707.65 418.09 690.19"></polygon>
    <polygon class="cls-5" points="452.01 710.26 450.08 716.32 457.54 716.89 458.52 715.05 452.01 710.26"></polygon>
    <polygon class="cls-5" points="458.52 715.05 457.54 716.89 465.24 726.6 474.19 714.83 458.52 715.05"></polygon>
    <polygon class="cls-5" points="474.19 714.83 465.24 726.6 476.18 719.72 490.31 720.8 474.19 714.83"></polygon>
    <polygon class="cls-5" points="506.35 726.77 503.74 739.64 509.79 730.14 506.35 726.77"></polygon>
    <polygon class="cls-5" points="506.35 726.77 490.31 720.8 500.46 731.65 503.74 739.64 506.35 726.77"></polygon>
    <polygon class="cls-5" points="561.63 724.47 550.76 729.07 561.24 734.81 568.36 726.58 561.63 724.47"></polygon>
    <polygon class="cls-5" points="561.63 724.47 506.35 726.77 509.79 730.14 550.76 729.07 561.63 724.47"></polygon>
    <polygon class="cls-5" points="478.56 824.84 457.89 808.54 462.02 823.92 478.56 834.03 478.56 824.84"></polygon>
    <polygon class="cls-5" points="503.82 821.86 478.56 824.84 478.56 834.03 503.36 834.72 503.82 821.86"></polygon>
    <polygon class="cls-5" points="579.39 817.42 569.67 816.88 561.7 829.9 575.56 829.74 579.39 817.42"></polygon>
    <polygon class="cls-5" points="589.19 806.01 579.39 817.42 575.56 829.74 588.19 824 589.19 806.01"></polygon>
    <polygon class="cls-5" points="554.91 746.24 545.15 746.69 550.22 763.06 563.2 763.52 554.91 746.24"></polygon>
    <polygon class="cls-5" points="563.2 763.52 550.22 763.06 569.67 794.53 579.5 786.98 563.2 763.52"></polygon>
    <polygon class="cls-5" points="569.67 794.53 572.61 798.31 579.5 786.98 569.67 794.53"></polygon>
    <polygon class="cls-5" points="594.66 796.02 589.19 806.01 588.19 824 593.28 815.89 594.66 796.02"></polygon>
    <polygon class="cls-5" points="563.77 818.64 510.94 823.92 503.36 834.72 561.7 829.9 563.77 818.64"></polygon>
    <polygon class="cls-5" points="510.94 823.92 503.82 821.86 503.36 834.72 510.94 823.92"></polygon>
    <polygon class="cls-5" points="569.67 816.88 563.77 818.64 561.7 829.9 569.67 816.88"></polygon>
    <polygon class="cls-5" points="457.89 808.54 452.37 798.43 449.85 810.83 462.02 823.92 457.89 808.54"></polygon>
    <polygon class="cls-5" points="452.37 798.43 425.27 759.84 449.85 810.83 452.37 798.43"></polygon>
    <polygon class="cls-5" points="448.47 707.65 445.48 711.38 444.67 718.33 450.08 716.32 452.01 710.26 448.47 707.65"></polygon>
    <polygon class="cls-5" points="340.06 652.81 364.86 678.08 367.79 674.18 340.06 652.81"></polygon>
    <polygon class="cls-7" points="520.13 591.26 501.6 592.17 497.16 623.26 527.33 610.7 520.13 591.26"></polygon>
    <polygon class="cls-7" points="527.94 642.09 519.06 633.82 502.52 645.15 497.16 658.63 527.94 642.09"></polygon>
    <polygon class="cls-7" points="539.88 676.39 527.94 642.09 497.16 658.63 507.42 677.92 539.88 676.39"></polygon>
    <polygon class="cls-7" points="583.83 647.91 534.52 629.38 544.78 640.1 560.55 664.14 583.83 647.91"></polygon>
    <polygon class="cls-7" points="560.55 664.14 544.78 640.1 527.94 642.09 533.45 658.02 560.55 664.14"></polygon>
    <polygon class="cls-7" points="542.64 618.05 519.06 633.82 534.52 629.38 583.83 647.91 542.64 618.05"></polygon>
    <polygon class="cls-7" points="527.33 610.7 497.16 623.26 495.02 638.26 542.64 618.05 527.33 610.7"></polygon>
    <polygon class="cls-7" points="494.41 567.83 467 582.07 462.25 604.42 495.94 577.63 494.41 567.83"></polygon>
    <polygon class="cls-7" points="520.13 591.26 494.41 567.83 495.94 577.63 520.13 591.26"></polygon>
    <polygon class="cls-7" points="519.06 633.82 542.64 618.05 495.02 638.26 519.06 633.82"></polygon>
    <polygon class="cls-7" points="501.45 540.88 481.79 504.44 454.03 507.68 451.69 533.83 501.45 540.88"></polygon>
    <polygon class="cls-7" points="433.33 485.82 441.17 449.92 380.94 450.69 362.97 489.36 433.33 485.82"></polygon>
    <polygon class="cls-7" points="454.03 507.68 433.33 485.82 362.97 489.36 389.44 517.53 454.03 507.68"></polygon>
    <polygon class="cls-7" points="360.58 529.39 389.44 517.53 362.97 489.36 339.29 510.56 360.58 529.39"></polygon>
    <polygon class="cls-7" points="451.69 533.83 454.03 507.68 389.44 517.53 412.64 529.01 451.69 533.83"></polygon>
    <polygon class="cls-8" points="459.65 556.5 451.69 533.83 412.64 529.01 398.09 547.62 402.23 568.44 416.93 580.08 440.66 580.08 459.65 556.5"></polygon>
    <polygon class="cls-8" points="621.96 538.43 614.91 527.86 587.32 552.44 588.38 558.45 605.57 563.85 620.58 557.26 621.96 538.43"></polygon>
    <polygon class="cls-7" points="583.98 541.18 575.66 523.19 549.99 543.48 578.7 560.02 583.98 541.18"></polygon>
    <polygon class="cls-7" points="628.08 662.46 625.17 641.94 583.83 647.91 599.91 685.27 628.08 662.46"></polygon>
    <polygon class="cls-5" points="601.42 540.11 606.03 502.14 583.98 541.18 578.7 560.02 601.42 540.11"></polygon>
    <polygon class="cls-7" points="642.78 516.84 629 514.77 616.6 517.53 614.91 527.86 642.78 516.84"></polygon>
    <polygon class="cls-7" points="616.6 517.53 604.29 492.95 606.03 502.14 614.91 527.86 616.6 517.53"></polygon>
    <polygon class="cls-7" points="614.91 527.86 606.03 502.14 601.42 540.11 614.91 527.86"></polygon>
    <polygon class="cls-7" points="629 514.77 629.55 495.03 604.29 492.95 616.6 517.53 629 514.77"></polygon>
    <polygon class="cls-7" points="642.78 516.84 647.83 508.11 629.55 495.03 629 514.77 642.78 516.84"></polygon>
    <polygon class="cls-7" points="599.91 685.27 583.83 647.91 560.55 664.14 567.29 679.76 599.91 685.27"></polygon>
    <polygon class="cls-7" points="615.43 432.22 570.81 409.41 570.81 437.83 595.31 463.09 615.43 432.22"></polygon>
    <polygon class="cls-7" points="604.29 492.95 595.31 463.09 575.31 473.96 606.03 502.14 604.29 492.95"></polygon>
    <polygon class="cls-7" points="667.13 473.89 659.55 458.96 633.65 430.02 651.36 461.71 667.13 473.89"></polygon>
    <polygon class="cls-7" points="647.83 508.11 667.13 473.89 651.36 461.71 629.55 495.03 647.83 508.11"></polygon>
    <polygon class="cls-7" points="606.03 391.43 585.71 378.91 570.81 409.41 615.43 432.22 606.03 391.43"></polygon>
    <polygon class="cls-5" points="570.81 409.41 557.8 409.41 541.72 454.21 570.81 437.83 570.81 409.41"></polygon>
    <polygon class="cls-7" points="604.29 368.35 536.21 316.55 536.21 348.4 604.29 368.35"></polygon>
    <polygon class="cls-1" points="536.21 348.4 606.03 391.43 635.28 394.8 604.29 368.35 536.21 348.4"></polygon>
    <polygon class="cls-3" points="567.16 313.91 549.19 309.38 536.21 316.55 560.1 322.99 567.16 313.91"></polygon>
    <polygon class="cls-5" points="635.28 394.8 623.79 367.39 604.29 368.35 635.28 394.8"></polygon>
    <polygon class="cls-5" points="422.48 333.65 421.67 312.88 395.89 316.55 409.77 329.42 422.48 333.65"></polygon>
    <polygon class="cls-1" points="536.21 348.4 477.1 311.81 435.15 321.15 494.09 359.66 536.21 348.4"></polygon>
    <polygon class="cls-1" points="494.09 359.66 435.15 321.15 446.17 367.39 494.09 359.66"></polygon>
    <polygon class="cls-5" points="422.29 358.36 422.48 333.65 409.77 329.42 422.29 358.36 422.29 358.36"></polygon>
    <polygon class="cls-5" points="397.17 332.02 409.77 329.42 395.89 316.55 397.17 332.02"></polygon>
    <polygon class="cls-3" points="439.66 340.07 435.15 321.15 421.67 312.88 422.29 358.82 439.66 340.07"></polygon>
    <polygon class="cls-3" points="557.8 409.41 536.21 388.29 546.06 409.41 557.8 409.41"></polygon>
    <polygon class="cls-3" points="536.21 388.29 494.09 359.66 484.32 361.23 536.21 388.29"></polygon>
    <polygon class="cls-3" points="557.8 409.41 546.06 409.41 541.72 454.21 557.8 409.41"></polygon>
    <polygon class="cls-3" points="585.71 378.91 575.31 372.5 570.81 409.41 585.71 378.91"></polygon>
    <polygon class="cls-3" points="516 533.57 501.45 540.88 530.39 553.89 516 533.57"></polygon>
    <polygon class="cls-7" points="570.81 409.41 536.21 388.29 557.8 409.41 570.81 409.41"></polygon>
    <polygon class="cls-7" points="595.31 463.09 570.81 437.83 575.31 473.96 595.31 463.09"></polygon>
    <polygon class="cls-5" points="570.81 437.83 541.72 454.21 575.31 473.96 570.81 437.83"></polygon>
    <polygon class="cls-5" points="541.72 454.21 546.06 502.14 580 502.14 575.31 473.96 541.72 454.21"></polygon>
    <polygon class="cls-5" points="546.06 502.14 549.99 543.48 575.66 523.19 580 502.14 546.06 502.14"></polygon>
    <polygon class="cls-4" points="422.29 358.36 409.77 329.42 397.17 332.02 397.17 346.55 422.29 358.36"></polygon>
    <polygon class="cls-4" points="546.06 409.41 536.21 388.29 526.79 428.87 541.72 454.21 546.06 409.41"></polygon>
    <polygon class="cls-4" points="578.7 560.02 549.68 557.87 583.83 647.91 625.17 641.94 578.7 560.02"></polygon>
    <polygon class="cls-4" points="501.6 592.17 462.25 604.42 454.67 650.97 495.02 638.26 501.6 592.17"></polygon>
    <polygon class="cls-7" points="549.99 543.48 530.39 553.89 549.68 557.87 578.7 560.02 549.99 543.48"></polygon>
    <polygon class="cls-1" points="414.63 377.57 422.29 358.36 397.17 346.55 400.39 366.63 414.63 377.57"></polygon>
    <polygon class="cls-1" points="317.86 377.57 345.72 418.23 400.39 366.63 397.17 346.55 317.86 377.57"></polygon>
    <polygon class="cls-7" points="345.72 418.23 385.23 409.41 414.63 377.57 400.39 366.63 345.72 418.23"></polygon>
    <polygon class="cls-7" points="606.03 391.43 610.17 409.41 633.65 430.02 635.28 394.8 606.03 391.43"></polygon>
    <polygon class="cls-4" points="494.09 359.66 536.21 388.29 570.81 409.41 575.31 372.5 536.21 348.4 494.09 359.66"></polygon>
    <polygon class="cls-5" points="604.29 368.35 536.21 316.55 560.1 322.99 623.79 367.39 604.29 368.35"></polygon>
  </g>
  <g id="text">
    <text class="cls-10" transform="translate(710.55 205.55) scale(1.21 1)" svgjs:data="{&quot;leading&quot;:&quot;1.3&quot;}"><tspan x="0" y="0" svgjs:data="{&quot;leading&quot;:&quot;1.3&quot;}">I</tspan><tspan x="0" y="230" svgjs:data="{&quot;leading&quot;:&quot;1.3&quot;}">N</tspan><tspan x="0" y="460" svgjs:data="{&quot;leading&quot;:&quot;1.3&quot;}">K</tspan><tspan x="0" y="690" svgjs:data="{&quot;leading&quot;:&quot;1.3&quot;}">H</tspan></text>
  </g>
</svg></svg></g></svg>